<?xml version="1.0" encoding="utf-8"?>
<!-- Generator: Adobe Illustrator 19.0.0, SVG Export Plug-In . SVG Version: 6.00 Build 0)  -->
<svg version="1.1" id="Layer_1" xmlns="http://www.w3.org/2000/svg" xmlns:xlink="http://www.w3.org/1999/xlink" x="0px" y="0px"
	 viewBox="-112.6 256.1 226.8 56.7" style="enable-background:new -112.6 256.1 226.8 56.7;" xml:space="preserve">
<g id="XMLID_31_">
	<path id="XMLID_79_" d="M-99.7,272.8h12.2c1.6,0.4,2.8,1.1,3.8,2.3c0.7,0.8,1.1,2.3,1.1,4.5v2.1c0,2-0.4,3.4-1.1,4l-0.4,0.5v0.2
		c1,1,1.5,2.3,1.5,4v8.9c-0.2,0.4-0.4,0.5-0.7,0.5h-5c-0.5,0-0.7-0.3-0.7-0.8v-8.7c-0.2-1-0.7-1.5-1.5-1.5h-2.6l-0.4,0.4v9.7
		c0,0.6-0.2,1-0.7,1h-5.1c-0.3,0-0.6-0.3-0.7-0.8l-0.1-25.8L-99.7,272.8z M-93.3,278.3v5.3l0.3,0.3h2.8c0.7,0,1.2-0.5,1.3-1.6v-2.9
		c-0.2-1-0.8-1.4-1.8-1.4h-2.3L-93.3,278.3z M-79.5,272.8H-64l0.3,0.3v4c0,0.4-0.2,0.6-0.6,0.6h-8.9c-0.4,0-0.5,0.2-0.5,0.5v4.7
		l0.3,0.3h7.5c0.5,0,0.8,0.2,0.8,0.6v3.9c0,0.4-0.2,0.5-0.5,0.5h-7.5c-0.4,0-0.5,0.2-0.5,0.5v4.6c0,1,0.8,1.5,2.3,1.5h7.5
		c0.4,0,0.6,0.2,0.6,0.6v4l-0.3,0.3h-11.6c-1.7-0.5-3-1.4-3.9-2.7c-0.6-1.2-0.9-2.4-0.9-3.5v-19.6
		C-79.8,273.2-79.8,272.8-79.5,272.8L-79.5,272.8z M-47.9,272.8c1.9,0.3,3.2,0.9,4,1.8c0.6,0.9,0.9,2,0.8,3.3l0.1,16
		c-0.1,1.3-0.6,2.6-1.7,3.9c-1.3,1.3-2.7,1.9-4.1,2h-11.3c-0.2,0-0.4-0.2-0.5-0.7v-25.3c0-0.7,0.2-1,0.6-1H-47.9z M-54.3,277.8v16.7
		c0,0.2,0.1,0.3,0.4,0.3h2.8c1.1,0,1.7-0.4,1.8-1.3V279c0-0.9-0.8-1.3-2.2-1.3L-54.3,277.8L-54.3,277.8z"/>
	<path id="XMLID_64_" d="M88.6,276.6c-0.9,0.1-1.7,0.3-2.4,0.8s-1.2,1.1-1.6,1.8c-0.4,0.7-0.5,1.4-0.5,2.2v4.2h10.6
		c1.1-0.1,1.9-0.7,2.5-1.5c0.6-0.9,0.9-1.9,0.9-3c0-1.2-0.3-2.1-1-3c-0.7-0.8-1.6-1.3-2.8-1.4h-3.5L88.6,276.6z M98.6,286.9
		c0.9,0.7,1.5,1.5,2,2.5c0.4,1,0.6,2.1,0.6,3.2v7.1h-2.6v-7.3c0-1.2-0.4-2.2-1-2.9c-0.7-0.7-1.6-1.2-2.7-1.3c-0.1,0-0.1,0-0.3,0
		H84.1v11.5h-2.6v-18.3c0-1.2,0.2-2.3,0.8-3.4c0.5-1.1,1.3-2,2.4-2.7c1-0.7,2.3-1.1,3.8-1.2l0,0h4l0,0h2.1c1.5,0.1,2.8,0.5,3.8,1.2
		c1,0.7,1.8,1.6,2.4,2.6c0.5,1.1,0.8,2.2,0.8,3.3c0,1.1-0.2,2.2-0.7,3.2C100.3,285.4,99.6,286.2,98.6,286.9L98.6,286.9z"/>
	<path id="XMLID_63_" d="M62.3,288.1c0.2,1.6,0.7,3.1,1.6,4.4c0.9,1.3,2,2.4,3.4,3.2c1.4,0.8,2.9,1.3,4.6,1.3l0,0h7.8v2.6h-7.3l0,0
		c-2.3,0-4.5-0.6-6.4-1.7c-2-1.2-3.5-2.7-4.7-4.7s-1.7-4.1-1.7-6.4c0-2.3,0.5-4.4,1.6-6.3s2.6-3.5,4.5-4.6c1.9-1.2,4-1.8,6.2-1.9
		h7.8v2.6h-7.3c-1.7,0-3.3,0.4-4.8,1.2c-1.5,0.8-2.7,1.9-3.6,3.2c-1,1.4-1.5,2.9-1.8,4.5h17.5v2.6H62.3z"/>
	<path id="XMLID_60_" d="M47.1,299.7c-2.4,0-4.6-0.6-6.6-1.7s-3.5-2.7-4.7-4.7c-1.1-2-1.7-4.1-1.7-6.4c0-2.3,0.6-4.5,1.7-6.5
		c1.2-2,2.7-3.5,4.7-4.7c2-1.2,4.1-1.7,6.5-1.7c2.1,0,4,0.5,5.7,1.3c1.8,0.9,3.3,2.2,4.6,3.8l-2.1,1.5c-1.1-1.3-2.3-2.4-3.7-3.1
		c-1.4-0.7-2.9-1.1-4.5-1.1c-1.9,0-3.6,0.5-5.2,1.4c-1.6,0.9-2.8,2.2-3.8,3.8c-0.9,1.6-1.4,3.3-1.4,5.2c0,1.9,0.5,3.6,1.4,5.2
		s2.2,2.8,3.8,3.8c1.6,0.9,3.3,1.4,5.1,1.4c1.5-0.1,2.9-0.4,4.1-0.9c1.2-0.5,2.2-1.2,2.9-2c0.7-0.8,1-1.7,1-2.7
		c-0.1-1.4-0.3-2.4-0.9-2.9s-1.4-0.8-2.5-0.8H40.4v-2.6h11.1c4,0.1,6,2.2,6,6.4c0,1.5-0.5,2.8-1.4,4c-0.9,1.2-2.2,2.1-3.8,2.8
		C50.9,299.4,49.1,299.7,47.1,299.7L47.1,299.7z"/>
	<path id="XMLID_59_" d="M21.8,299.7c-2.4,0-4.6-0.6-6.6-1.7s-3.5-2.7-4.7-4.7c-1.1-2-1.7-4.1-1.7-6.4c0-2.3,0.6-4.5,1.7-6.5
		c1.2-2,2.7-3.5,4.7-4.7c2-1.2,4.1-1.7,6.5-1.7c2.1,0,4,0.5,5.7,1.3c1.8,0.9,3.3,2.2,4.6,3.8l-2.1,1.5c-1.1-1.3-2.3-2.4-3.7-3.1
		c-1.4-0.7-2.9-1.1-4.5-1.1c-1.9,0-3.6,0.5-5.2,1.4c-1.6,0.9-2.8,2.2-3.8,3.8c-0.9,1.6-1.4,3.3-1.4,5.2c0,1.9,0.5,3.6,1.4,5.2
		s2.2,2.8,3.8,3.8c1.6,0.9,3.3,1.4,5.1,1.4c1.5-0.1,2.9-0.4,4.1-0.9c1.2-0.5,2.2-1.2,2.9-2c0.7-0.8,1-1.7,1-2.7
		c-0.1-1.4-0.3-2.4-0.9-2.9c-0.5-0.5-1.4-0.8-2.5-0.8H15.1v-2.6h11.1c4,0.1,6,2.2,6,6.4c0,1.5-0.5,2.8-1.4,4
		c-0.9,1.2-2.2,2.1-3.8,2.8C25.6,299.4,23.8,299.7,21.8,299.7L21.8,299.7z"/>
	<path id="XMLID_58_" d="M-11.1,282.9c0-1.6,0.5-3.1,1.3-4.5s1.9-2.4,3.3-3.2c1.4-0.8,2.9-1.2,4.5-1.2s3.1,0.4,4.5,1.2
		c1.4,0.8,2.5,1.9,3.3,3.2c0.8,1.4,1.3,2.9,1.3,4.5v16.8H4.4v-16.8c0-1.2-0.3-2.2-0.9-3.2s-1.4-1.7-2.4-2.3s-2.1-0.8-3.2-0.8
		c-1.2,0-2.3,0.3-3.2,0.8c-1,0.6-1.8,1.3-2.4,2.3s-0.9,2-0.9,3.2v16.7h-2.6V282.9z"/>
	<rect id="XMLID_57_" x="-15.6" y="279.2" width="2.6" height="20.6"/>
	<path id="XMLID_38_" d="M-27.9,299.7c-2.4,0-4.6-0.6-6.6-1.7s-3.5-2.7-4.7-4.7c-1.1-2-1.7-4.1-1.7-6.4c0-2.3,0.6-4.5,1.7-6.5
		c1.2-2,2.7-3.5,4.7-4.7c2-1.2,4.1-1.7,6.5-1.7c2.1,0,4,0.5,5.7,1.3c1.8,0.9,3.3,2.2,4.6,3.8l-2.1,1.5c-1.1-1.3-2.3-2.4-3.7-3.1
		c-1.4-0.7-2.9-1.1-4.5-1.1c-1.9,0-3.6,0.5-5.2,1.4c-1.6,0.9-2.8,2.2-3.8,3.8c-0.9,1.6-1.4,3.3-1.4,5.2c0,1.9,0.5,3.6,1.4,5.2
		s2.2,2.8,3.8,3.8c1.6,0.9,3.3,1.4,5.1,1.4c1.5-0.1,2.9-0.4,4.1-0.9s2.2-1.2,2.9-2c0.7-0.8,1-1.7,1-2.7c-0.1-1.4-0.3-2.4-0.9-2.9
		c-0.5-0.5-1.4-0.8-2.5-0.8h-11v-2.6h11.1c4,0.1,6,2.2,6,6.4c0,1.5-0.5,2.8-1.4,4c-0.9,1.2-2.2,2.1-3.8,2.8
		C-24.1,299.4-25.9,299.7-27.9,299.7L-27.9,299.7z"/>
	<path id="XMLID_36_" d="M-13.9,277.7c4-1.5,7.9,1.3,10.2,0.9C-8.7,274.4-10.6,269.6-13.9,277.7L-13.9,277.7z"/>
	<path id="XMLID_34_" d="M-23.5,269c0.5,0.3,0.9,0.6,1.6,0.8c0.6,0.2,1.3,0.1,1.9,0.3c3.3,0.3,4.8,1.8,5.2,5c0.1,0.8,0,2.9-0.6,3.5
		C-16.6,271-23.2,277.3-23.5,269L-23.5,269z"/>
</g>
</svg>
